name rise42.5664peak47.7979fall81.9185.mot
datacolumns 19
datarows 33
range 12.84161900000000 12.89495200000000
endheader
time	ground_force1_vx	ground_force1_vy	ground_force1_vz	ground_force1_px	ground_force1_py	ground_force1_pz	ground_force2_vx	ground_force2_vy	ground_force2_vz	ground_force2_px	ground_force2_py	ground_force2_pz	ground_torque1_x	ground_torque1_y	ground_torque1_z	ground_torque2_x	ground_torque2_y	ground_torque2_z	
12.84161900000000	54.86166300000000	797.68320500000004	46.36025600000000	0.28595500000000	0.00000000000000	0.09040600000000	0.00000000000000	0.00000000000000	0.00000000000000	0.00000000000000	0.00000000000000	0.00000000000000	0.00000000000000	16.20322400000000	0.00000000000000	0.00000000000000	0.00000000000000	0.00000000000000	
12.84328600000000	54.24868100000000	800.97487400000000	46.51145400000000	0.28509000000000	0.00000000000000	0.09041000000000	0.00000000000000	0.00000000000000	0.00000000000000	0.00000000000000	0.00000000000000	0.00000000000000	0.00000000000000	16.27256900000000	0.00000000000000	0.00000000000000	0.00000000000000	0.00000000000000	
12.84495400000000	53.62266100000000	804.02890700000000	46.66218500000000	0.28422600000000	0.00000000000000	0.09041500000000	0.00000000000000	0.00000000000000	0.00000000000000	0.00000000000000	0.00000000000000	0.00000000000000	0.00000000000000	16.34418100000000	0.00000000000000	0.00000000000000	0.00000000000000	0.00000000000000	
12.84661500000000	52.98473500000000	806.84479799999997	46.81210600000000	0.28336300000000	0.00000000000000	0.09042100000000	0.00000000000000	0.00000000000000	0.00000000000000	0.00000000000000	0.00000000000000	0.00000000000000	0.00000000000000	16.41779500000000	0.00000000000000	0.00000000000000	0.00000000000000	0.00000000000000	
12.84828000000000	52.33600200000000	809.42246999999998	46.96080100000000	0.28250000000000	0.00000000000000	0.09042800000000	0.00000000000000	0.00000000000000	0.00000000000000	0.00000000000000	0.00000000000000	0.00000000000000	0.00000000000000	16.49311400000000	0.00000000000000	0.00000000000000	0.00000000000000	0.00000000000000	
12.84995100000000	51.67752900000000	811.76227800000004	47.10779300000000	0.28163600000000	0.00000000000000	0.09043600000000	0.00000000000000	0.00000000000000	0.00000000000000	0.00000000000000	0.00000000000000	0.00000000000000	0.00000000000000	16.56980100000000	0.00000000000000	0.00000000000000	0.00000000000000	0.00000000000000	
12.85161300000000	51.01035100000000	813.86501299999998	47.25254900000000	0.28077100000000	0.00000000000000	0.09044500000000	0.00000000000000	0.00000000000000	0.00000000000000	0.00000000000000	0.00000000000000	0.00000000000000	0.00000000000000	16.64749600000000	0.00000000000000	0.00000000000000	0.00000000000000	0.00000000000000	
12.85328300000000	50.33547200000000	815.73189900000000	47.39448500000000	0.27990400000000	0.00000000000000	0.09045500000000	0.00000000000000	0.00000000000000	0.00000000000000	0.00000000000000	0.00000000000000	0.00000000000000	0.00000000000000	16.72580700000000	0.00000000000000	0.00000000000000	0.00000000000000	0.00000000000000	
12.85494900000000	49.65386300000000	817.36459000000002	47.53297300000000	0.27903400000000	0.00000000000000	0.09046600000000	0.00000000000000	0.00000000000000	0.00000000000000	0.00000000000000	0.00000000000000	0.00000000000000	0.00000000000000	16.80432300000000	0.00000000000000	0.00000000000000	0.00000000000000	0.00000000000000	
12.85661800000000	48.96646500000000	818.76517000000001	47.66735100000000	0.27816000000000	0.00000000000000	0.09047800000000	0.00000000000000	0.00000000000000	0.00000000000000	0.00000000000000	0.00000000000000	0.00000000000000	0.00000000000000	16.88261200000000	0.00000000000000	0.00000000000000	0.00000000000000	0.00000000000000	
12.85828600000000	48.27418800000000	819.93614900000000	47.79692600000000	0.27728200000000	0.00000000000000	0.09049000000000	0.00000000000000	0.00000000000000	0.00000000000000	0.00000000000000	0.00000000000000	0.00000000000000	0.00000000000000	16.96022800000000	0.00000000000000	0.00000000000000	0.00000000000000	0.00000000000000	
12.85994800000000	47.57791400000000	820.88045299999999	47.92098200000000	0.27639900000000	0.00000000000000	0.09050400000000	0.00000000000000	0.00000000000000	0.00000000000000	0.00000000000000	0.00000000000000	0.00000000000000	0.00000000000000	17.03671500000000	0.00000000000000	0.00000000000000	0.00000000000000	0.00000000000000	
12.86161400000000	46.87849500000000	821.60141899999996	48.03879000000000	0.27551000000000	0.00000000000000	0.09051800000000	0.00000000000000	0.00000000000000	0.00000000000000	0.00000000000000	0.00000000000000	0.00000000000000	0.00000000000000	17.11160700000000	0.00000000000000	0.00000000000000	0.00000000000000	0.00000000000000	
12.86328000000000	46.17675700000000	822.10278400000004	48.14961400000000	0.27461400000000	0.00000000000000	0.09053300000000	0.00000000000000	0.00000000000000	0.00000000000000	0.00000000000000	0.00000000000000	0.00000000000000	0.00000000000000	17.18443900000000	0.00000000000000	0.00000000000000	0.00000000000000	0.00000000000000	
12.86495100000000	45.47349900000000	822.38867900000002	48.25271500000000	0.27371200000000	0.00000000000000	0.09054800000000	0.00000000000000	0.00000000000000	0.00000000000000	0.00000000000000	0.00000000000000	0.00000000000000	0.00000000000000	17.25474300000000	0.00000000000000	0.00000000000000	0.00000000000000	0.00000000000000	
12.86661500000000	44.76949700000000	822.46361100000001	48.34736500000000	0.27280200000000	0.00000000000000	0.09056400000000	0.00000000000000	0.00000000000000	0.00000000000000	0.00000000000000	0.00000000000000	0.00000000000000	0.00000000000000	17.32205800000000	0.00000000000000	0.00000000000000	0.00000000000000	0.00000000000000	
12.86828200000000	44.06549900000000	822.33245399999998	48.43284400000000	0.27188300000000	0.00000000000000	0.09058100000000	0.00000000000000	0.00000000000000	0.00000000000000	0.00000000000000	0.00000000000000	0.00000000000000	0.00000000000000	17.38593100000000	0.00000000000000	0.00000000000000	0.00000000000000	0.00000000000000	
12.86994600000000	43.36223500000000	822.00043500000004	48.50845800000000	0.27095500000000	0.00000000000000	0.09059800000000	0.00000000000000	0.00000000000000	0.00000000000000	0.00000000000000	0.00000000000000	0.00000000000000	0.00000000000000	17.44592000000000	0.00000000000000	0.00000000000000	0.00000000000000	0.00000000000000	
12.87161800000000	42.66040900000000	821.47311600000000	48.57353600000000	0.27001800000000	0.00000000000000	0.09061600000000	0.00000000000000	0.00000000000000	0.00000000000000	0.00000000000000	0.00000000000000	0.00000000000000	0.00000000000000	17.50159800000000	0.00000000000000	0.00000000000000	0.00000000000000	0.00000000000000	
12.87328500000000	41.96070600000000	820.75637900000004	48.62744100000000	0.26907100000000	0.00000000000000	0.09063400000000	0.00000000000000	0.00000000000000	0.00000000000000	0.00000000000000	0.00000000000000	0.00000000000000	0.00000000000000	17.55255700000000	0.00000000000000	0.00000000000000	0.00000000000000	0.00000000000000	
12.87495400000000	41.26379100000000	819.85640899999999	48.66957400000000	0.26811400000000	0.00000000000000	0.09065200000000	0.00000000000000	0.00000000000000	0.00000000000000	0.00000000000000	0.00000000000000	0.00000000000000	0.00000000000000	17.59841000000000	0.00000000000000	0.00000000000000	0.00000000000000	0.00000000000000	
12.87662000000000	40.57031200000000	818.77967300000000	48.69937900000000	0.26714700000000	0.00000000000000	0.09067100000000	0.00000000000000	0.00000000000000	0.00000000000000	0.00000000000000	0.00000000000000	0.00000000000000	0.00000000000000	17.63879500000000	0.00000000000000	0.00000000000000	0.00000000000000	0.00000000000000	
12.87827900000000	39.88089600000000	817.53290400000003	48.71634900000000	0.26616800000000	0.00000000000000	0.09069000000000	0.00000000000000	0.00000000000000	0.00000000000000	0.00000000000000	0.00000000000000	0.00000000000000	0.00000000000000	17.67337700000000	0.00000000000000	0.00000000000000	0.00000000000000	0.00000000000000	
12.87994800000000	39.19615400000000	816.12307999999996	48.72002900000000	0.26517900000000	0.00000000000000	0.09070900000000	0.00000000000000	0.00000000000000	0.00000000000000	0.00000000000000	0.00000000000000	0.00000000000000	0.00000000000000	17.70184900000000	0.00000000000000	0.00000000000000	0.00000000000000	0.00000000000000	
12.88161300000000	38.51668000000000	814.55740100000003	48.71002300000000	0.26417900000000	0.00000000000000	0.09072800000000	0.00000000000000	0.00000000000000	0.00000000000000	0.00000000000000	0.00000000000000	0.00000000000000	0.00000000000000	17.72393500000000	0.00000000000000	0.00000000000000	0.00000000000000	0.00000000000000	
12.88328200000000	37.84305400000000	812.84326999999996	48.68599300000000	0.26316700000000	0.00000000000000	0.09074700000000	0.00000000000000	0.00000000000000	0.00000000000000	0.00000000000000	0.00000000000000	0.00000000000000	0.00000000000000	17.73939300000000	0.00000000000000	0.00000000000000	0.00000000000000	0.00000000000000	
12.88495000000000	37.17583800000000	810.98827100000005	48.64766500000000	0.26214500000000	0.00000000000000	0.09076600000000	0.00000000000000	0.00000000000000	0.00000000000000	0.00000000000000	0.00000000000000	0.00000000000000	0.00000000000000	17.74801500000000	0.00000000000000	0.00000000000000	0.00000000000000	0.00000000000000	
12.88661600000000	36.51557800000000	809.00014799999997	48.59482800000000	0.26111100000000	0.00000000000000	0.09078600000000	0.00000000000000	0.00000000000000	0.00000000000000	0.00000000000000	0.00000000000000	0.00000000000000	0.00000000000000	17.74962900000000	0.00000000000000	0.00000000000000	0.00000000000000	0.00000000000000	
12.88828800000000	35.86280800000000	806.88677800000005	48.52734300000000	0.26006800000000	0.00000000000000	0.09080500000000	0.00000000000000	0.00000000000000	0.00000000000000	0.00000000000000	0.00000000000000	0.00000000000000	0.00000000000000	17.74409800000000	0.00000000000000	0.00000000000000	0.00000000000000	0.00000000000000	
12.88994600000000	35.21804500000000	804.65615600000001	48.44513600000000	0.25901400000000	0.00000000000000	0.09082400000000	0.00000000000000	0.00000000000000	0.00000000000000	0.00000000000000	0.00000000000000	0.00000000000000	0.00000000000000	17.73132500000000	0.00000000000000	0.00000000000000	0.00000000000000	0.00000000000000	
12.89161300000000	34.58178800000000	802.31636500000002	48.34820300000000	0.25795000000000	0.00000000000000	0.09084300000000	0.00000000000000	0.00000000000000	0.00000000000000	0.00000000000000	0.00000000000000	0.00000000000000	0.00000000000000	17.71124700000000	0.00000000000000	0.00000000000000	0.00000000000000	0.00000000000000	
12.89328600000000	33.95452600000000	799.87555999999995	48.23661100000000	0.25687700000000	0.00000000000000	0.09086200000000	0.00000000000000	0.00000000000000	0.00000000000000	0.00000000000000	0.00000000000000	0.00000000000000	0.00000000000000	17.68384100000000	0.00000000000000	0.00000000000000	0.00000000000000	0.00000000000000	
12.89495200000000	33.33672900000000	797.34193900000002	48.11049500000000	0.25579600000000	0.00000000000000	0.09088000000000	0.00000000000000	0.00000000000000	0.00000000000000	0.00000000000000	0.00000000000000	0.00000000000000	0.00000000000000	17.64912000000000	0.00000000000000	0.00000000000000	0.00000000000000	0.00000000000000	
